<?xml version="1.0" encoding="UTF-8"?>
<svg width="73px" height="69px" viewBox="0 0 73 69" version="1.1" xmlns="http://www.w3.org/2000/svg" xmlns:xlink="http://www.w3.org/1999/xlink">
    <!-- Generator: Sketch 47 (45396) - http://www.bohemiancoding.com/sketch -->
    <title>favicon</title>
    <desc>Created with Sketch.</desc>
    <defs></defs>
    <g id="Page-1" stroke="none" stroke-width="1" fill="none" fill-rule="evenodd">
        <g id="favicon" fill="#1A3316">
            <path d="M41.7899762,41.7314801 C42.1718545,52.5733447 39.9349416,60.0296069 35.0792375,64.1002668 C33.0121575,65.8331522 28.1292787,68.4642422 22.8513519,68.3040097 C18.3867433,68.1684688 14.2005755,66.3083342 10.0075774,63.4427159 C3.07942111,58.7078101 0.726814827,50.0304789 0.45257699,41.8653094 C0.171600726,33.4995097 2.82730699,27.0107131 3.88892726,20.40981 C4.52071747,16.4814883 4.86146733,11.4147846 4.91117683,5.20969887 C9.94396019,5.24102783 13.7064618,5.0432328 16.1986817,4.61631379 C24.0548748,3.27054243 30.2115682,1.79990992 33.9029625,1.36479769 C45.2841945,0.0232684955 53.136504,0.107904987 57.542957,0.909974652 C62.123315,1.74369876 66.0291446,4.98879815 68.4072202,8.44780072 C71.2002785,12.5104116 72.0737523,16.8631347 72.2400271,17.8771968 C73.2061042,23.769023 71.2424624,30.2467899 66.6830249,34.979891 C63.1672195,38.6296092 57.8696826,40.4190734 55.1291915,41.2749484 C50.9328781,42.585487 46.486473,42.7376642 41.7899762,41.7314801 Z" id="Combined-Shape"></path>
        </g>
    </g>
</svg>